<svg width="190" height="56" viewBox="0 0 190 56" fill="none" xmlns="http://www.w3.org/2000/svg">
<path d="M155.625 4.58337H146.458V9.16671H141.875V13.75H137.292V27.5H141.875V32.0834H146.458V36.6667H151.042V41.25H155.625V45.8334H160.208V50.4167H164.792V45.8334H169.375V41.25H173.958V36.6667H178.542V32.0834H183.125V27.5H187.708V13.75H183.125V9.16671H178.542V4.58337H169.375V9.16671H164.792V13.75H160.208V9.16671H155.625V4.58337ZM155.625 9.16671V13.75H160.208V18.3334H164.792V13.75H169.375V9.16671H178.542V13.75H183.125V27.5H178.542V32.0834H173.958V36.6667H169.375V41.25H164.792V45.8334H160.208V41.25H155.625V36.6667H151.042V32.0834H146.458V27.5H141.875V13.75H146.458V9.16671H155.625Z" fill="white"/>
<path d="M20.625 4.66663H11.4584V9.33329H6.87502V14H2.29169V28H6.87502V32.6666H11.4584V37.3333H16.0417V42H20.625V46.6666H25.2084V51.3333H29.7917V46.6666H34.375V42H38.9584V37.3333H43.5417V32.6666H48.125V28H52.7084V14H48.125V9.33329H43.5417V4.66663H34.375V9.33329H29.7917V14H25.2084V9.33329H20.625V4.66663ZM20.625 9.33329V14H25.2084V18.6666H29.7917V14H34.375V9.33329H43.5417V14H48.125V28H43.5417V32.6666H38.9584V37.3333H34.375V42H29.7917V46.6666H25.2084V42H20.625V37.3333H16.0417V32.6666H11.4584V28H6.87502V14H11.4584V9.33329H20.625Z" fill="white"/>
<path d="M88.625 4.66663H79.4584V9.33329H74.875V14H70.2917V28H74.875V32.6666H79.4584V37.3333H84.0417V42H88.625V46.6666H93.2084V51.3333H97.7917V46.6666H102.375V42H106.958V37.3333H111.542V32.6666H116.125V28H120.708V14H116.125V9.33329H111.542V4.66663H102.375V9.33329H97.7917V14H93.2084V9.33329H88.625V4.66663ZM88.625 9.33329V14H93.2084V18.6666H97.7917V14H102.375V9.33329H111.542V14H116.125V28H111.542V32.6666H106.958V37.3333H102.375V42H97.7917V46.6666H93.2084V42H88.625V37.3333H84.0417V32.6666H79.4584V28H74.875V14H79.4584V9.33329H88.625Z" fill="white"/>
</svg>
