<svg width="44" height="44" viewBox="0 0 44 44" fill="none" xmlns="http://www.w3.org/2000/svg">
<path d="M43.6143 31.1661C42.7567 32.3568 41.8291 33.4757 40.8384 34.5147H2.77587C1.78511 33.4757 0.857562 32.3568 0 31.1661H43.6143Z" fill="#3F3D56"/>
<path d="M18.2218 31.4518V32.5958C18.2218 32.6551 18.2418 32.712 18.2775 32.754C18.3132 32.7961 18.3617 32.8199 18.4123 32.8202H25.1674C25.218 32.8197 25.2663 32.7958 25.302 32.7538C25.3377 32.7118 25.3577 32.655 25.3579 32.5958V31.4518H18.2218Z" fill="#3F3D56"/>
<path d="M35.6055 1.05524H8.2121C7.97674 1.05559 7.75109 1.16523 7.58456 1.36013C7.41804 1.55503 7.32423 1.81932 7.32367 2.09511V23.7552C7.32386 24.0313 7.41752 24.2959 7.58409 24.4911C7.75067 24.6863 7.97653 24.796 8.2121 24.7962H35.6055C35.8411 24.796 36.067 24.6863 36.2335 24.4911C36.4001 24.2959 36.4938 24.0313 36.494 23.7552V2.09511C36.4934 1.81932 36.3996 1.55503 36.2331 1.36013C36.0665 1.16523 35.8409 1.05559 35.6055 1.05524Z" fill="#3F3D56"/>
<path d="M35.3765 1.80711H8.44015C8.31413 1.80743 8.19337 1.86631 8.10436 1.97083C8.01534 2.07535 7.96534 2.21697 7.96533 2.36463V23.488C7.96555 23.6355 8.01564 23.7769 8.10464 23.8812C8.19364 23.9855 8.31429 24.0442 8.44015 24.0444H35.3765C35.5024 24.0442 35.623 23.9855 35.712 23.8812C35.801 23.7769 35.8511 23.6355 35.8513 23.488V2.36463C35.8513 2.21697 35.8013 2.07535 35.7123 1.97083C35.6233 1.86631 35.5025 1.80743 35.3765 1.80711Z" fill="#6C63FF"/>
<path d="M30.419 32.8017L30.1703 31.4171C30.1599 31.3607 30.1377 31.3081 30.1057 31.2643C30.0736 31.2204 30.0327 31.1867 29.9866 31.1661C29.9533 31.1508 29.9178 31.1429 29.882 31.143H14.3532C14.3173 31.1429 14.2819 31.1508 14.2485 31.1661C14.2025 31.1867 14.1616 31.2204 14.1295 31.2643C14.0974 31.3081 14.0752 31.3607 14.0649 31.4171L13.8161 32.8017C13.8072 32.8519 13.8078 32.9039 13.8182 32.9538C13.8285 33.0037 13.8481 33.0503 13.8757 33.0902C13.9033 33.1301 13.9382 33.1623 13.9777 33.1844C14.0173 33.2065 14.0606 33.218 14.1044 33.2181H30.1298C30.1738 33.2183 30.2172 33.2069 30.2569 33.1847C30.2965 33.1624 30.3314 33.13 30.3588 33.0897C30.3865 33.0499 30.4062 33.0035 30.4166 32.9536C30.4271 32.9038 30.4279 32.8519 30.419 32.8017Z" fill="#2F2E41"/>
<path d="M14.9124 31.3923H14.5152C14.4886 31.3923 14.467 31.4175 14.467 31.4486V31.682C14.467 31.7131 14.4886 31.7384 14.5152 31.7384H14.9124C14.939 31.7384 14.9606 31.7131 14.9606 31.682V31.4486C14.9606 31.4175 14.939 31.3923 14.9124 31.3923Z" fill="#3F3D56"/>
<path d="M15.8995 31.3923H15.5023C15.4757 31.3923 15.4541 31.4175 15.4541 31.4486V31.682C15.4541 31.7131 15.4757 31.7384 15.5023 31.7384H15.8995C15.9261 31.7384 15.9477 31.7131 15.9477 31.682V31.4486C15.9477 31.4175 15.9261 31.3923 15.8995 31.3923Z" fill="#3F3D56"/>
<path d="M16.8867 31.3923H16.4895C16.4629 31.3923 16.4413 31.4175 16.4413 31.4486V31.682C16.4413 31.7131 16.4629 31.7384 16.4895 31.7384H16.8867C16.9133 31.7384 16.9349 31.7131 16.9349 31.682V31.4486C16.9349 31.4175 16.9133 31.3923 16.8867 31.3923Z" fill="#3F3D56"/>
<path d="M17.8738 31.3923H17.4766C17.45 31.3923 17.4284 31.4175 17.4284 31.4486V31.682C17.4284 31.7131 17.45 31.7384 17.4766 31.7384H17.8738C17.9004 31.7384 17.922 31.7131 17.922 31.682V31.4486C17.922 31.4175 17.9004 31.3923 17.8738 31.3923Z" fill="#3F3D56"/>
<path d="M18.8609 31.3923H18.4637C18.4371 31.3923 18.4155 31.4175 18.4155 31.4486V31.682C18.4155 31.7131 18.4371 31.7384 18.4637 31.7384H18.8609C18.8875 31.7384 18.9091 31.7131 18.9091 31.682V31.4486C18.9091 31.4175 18.8875 31.3923 18.8609 31.3923Z" fill="#3F3D56"/>
<path d="M19.8481 31.3923H19.4509C19.4243 31.3923 19.4027 31.4175 19.4027 31.4486V31.682C19.4027 31.7131 19.4243 31.7384 19.4509 31.7384H19.8481C19.8747 31.7384 19.8963 31.7131 19.8963 31.682V31.4486C19.8963 31.4175 19.8747 31.3923 19.8481 31.3923Z" fill="#3F3D56"/>
<path d="M20.8353 31.3923H20.4381C20.4115 31.3923 20.3899 31.4175 20.3899 31.4486V31.682C20.3899 31.7131 20.4115 31.7384 20.4381 31.7384H20.8353C20.8619 31.7384 20.8835 31.7131 20.8835 31.682V31.4486C20.8835 31.4175 20.8619 31.3923 20.8353 31.3923Z" fill="#3F3D56"/>
<path d="M21.8225 31.3923H21.4253C21.3987 31.3923 21.3771 31.4175 21.3771 31.4486V31.682C21.3771 31.7131 21.3987 31.7384 21.4253 31.7384H21.8225C21.8491 31.7384 21.8707 31.7131 21.8707 31.682V31.4486C21.8707 31.4175 21.8491 31.3923 21.8225 31.3923Z" fill="#3F3D56"/>
<path d="M22.8096 31.3923H22.4124C22.3858 31.3923 22.3642 31.4175 22.3642 31.4486V31.682C22.3642 31.7131 22.3858 31.7384 22.4124 31.7384H22.8096C22.8362 31.7384 22.8578 31.7131 22.8578 31.682V31.4486C22.8578 31.4175 22.8362 31.3923 22.8096 31.3923Z" fill="#3F3D56"/>
<path d="M23.7968 31.3923H23.3996C23.373 31.3923 23.3514 31.4175 23.3514 31.4486V31.682C23.3514 31.7131 23.373 31.7384 23.3996 31.7384H23.7968C23.8234 31.7384 23.845 31.7131 23.845 31.682V31.4486C23.845 31.4175 23.8234 31.3923 23.7968 31.3923Z" fill="#3F3D56"/>
<path d="M24.7838 31.3923H24.3866C24.36 31.3923 24.3384 31.4175 24.3384 31.4486V31.682C24.3384 31.7131 24.36 31.7384 24.3866 31.7384H24.7838C24.8104 31.7384 24.832 31.7131 24.832 31.682V31.4486C24.832 31.4175 24.8104 31.3923 24.7838 31.3923Z" fill="#3F3D56"/>
<path d="M25.771 31.3923H25.3738C25.3472 31.3923 25.3256 31.4175 25.3256 31.4486V31.682C25.3256 31.7131 25.3472 31.7384 25.3738 31.7384H25.771C25.7976 31.7384 25.8192 31.7131 25.8192 31.682V31.4486C25.8192 31.4175 25.7976 31.3923 25.771 31.3923Z" fill="#3F3D56"/>
<path d="M26.7582 31.3923H26.361C26.3344 31.3923 26.3128 31.4175 26.3128 31.4486V31.682C26.3128 31.7131 26.3344 31.7384 26.361 31.7384H26.7582C26.7848 31.7384 26.8064 31.7131 26.8064 31.682V31.4486C26.8064 31.4175 26.7848 31.3923 26.7582 31.3923Z" fill="#3F3D56"/>
<path d="M27.7454 31.3923H27.3482C27.3216 31.3923 27.3 31.4175 27.3 31.4486V31.682C27.3 31.7131 27.3216 31.7384 27.3482 31.7384H27.7454C27.772 31.7384 27.7936 31.7131 27.7936 31.682V31.4486C27.7936 31.4175 27.772 31.3923 27.7454 31.3923Z" fill="#3F3D56"/>
<path d="M28.7325 31.3923H28.3353C28.3087 31.3923 28.2871 31.4175 28.2871 31.4486V31.682C28.2871 31.7131 28.3087 31.7384 28.3353 31.7384H28.7325C28.7591 31.7384 28.7807 31.7131 28.7807 31.682V31.4486C28.7807 31.4175 28.7591 31.3923 28.7325 31.3923Z" fill="#3F3D56"/>
<path d="M29.7196 31.3923H29.3224C29.2958 31.3923 29.2742 31.4175 29.2742 31.4486V31.682C29.2742 31.7131 29.2958 31.7384 29.3224 31.7384H29.7196C29.7462 31.7384 29.7678 31.7131 29.7678 31.682V31.4486C29.7678 31.4175 29.7462 31.3923 29.7196 31.3923Z" fill="#3F3D56"/>
<path d="M14.9007 31.9707H14.5035C14.4769 31.9707 14.4553 31.9959 14.4553 32.027V32.2604C14.4553 32.2915 14.4769 32.3167 14.5035 32.3167H14.9007C14.9273 32.3167 14.9489 32.2915 14.9489 32.2604V32.027C14.9489 31.9959 14.9273 31.9707 14.9007 31.9707Z" fill="#3F3D56"/>
<path d="M15.8879 31.9707H15.4907C15.4641 31.9707 15.4425 31.9959 15.4425 32.027V32.2604C15.4425 32.2915 15.4641 32.3167 15.4907 32.3167H15.8879C15.9145 32.3167 15.9361 32.2915 15.9361 32.2604V32.027C15.9361 31.9959 15.9145 31.9707 15.8879 31.9707Z" fill="#3F3D56"/>
<path d="M16.875 31.9707H16.4778C16.4512 31.9707 16.4296 31.9959 16.4296 32.027V32.2604C16.4296 32.2915 16.4512 32.3167 16.4778 32.3167H16.875C16.9016 32.3167 16.9232 32.2915 16.9232 32.2604V32.027C16.9232 31.9959 16.9016 31.9707 16.875 31.9707Z" fill="#3F3D56"/>
<path d="M17.8622 31.9707H17.465C17.4384 31.9707 17.4168 31.9959 17.4168 32.027V32.2604C17.4168 32.2915 17.4384 32.3167 17.465 32.3167H17.8622C17.8888 32.3167 17.9104 32.2915 17.9104 32.2604V32.027C17.9104 31.9959 17.8888 31.9707 17.8622 31.9707Z" fill="#3F3D56"/>
<path d="M18.8493 31.9707H18.4521C18.4255 31.9707 18.4039 31.9959 18.4039 32.027V32.2604C18.4039 32.2915 18.4255 32.3167 18.4521 32.3167H18.8493C18.8759 32.3167 18.8975 32.2915 18.8975 32.2604V32.027C18.8975 31.9959 18.8759 31.9707 18.8493 31.9707Z" fill="#3F3D56"/>
<path d="M19.8365 31.9707H19.4393C19.4127 31.9707 19.3911 31.9959 19.3911 32.027V32.2604C19.3911 32.2915 19.4127 32.3167 19.4393 32.3167H19.8365C19.8631 32.3167 19.8847 32.2915 19.8847 32.2604V32.027C19.8847 31.9959 19.8631 31.9707 19.8365 31.9707Z" fill="#3F3D56"/>
<path d="M20.8236 31.9707H20.4264C20.3998 31.9707 20.3782 31.9959 20.3782 32.027V32.2604C20.3782 32.2915 20.3998 32.3167 20.4264 32.3167H20.8236C20.8502 32.3167 20.8718 32.2915 20.8718 32.2604V32.027C20.8718 31.9959 20.8502 31.9707 20.8236 31.9707Z" fill="#3F3D56"/>
<path d="M21.8107 31.9707H21.4135C21.3869 31.9707 21.3654 31.9959 21.3654 32.027V32.2604C21.3654 32.2915 21.3869 32.3167 21.4135 32.3167H21.8107C21.8374 32.3167 21.8589 32.2915 21.8589 32.2604V32.027C21.8589 31.9959 21.8374 31.9707 21.8107 31.9707Z" fill="#3F3D56"/>
<path d="M22.798 31.9707H22.4008C22.3742 31.9707 22.3526 31.9959 22.3526 32.027V32.2604C22.3526 32.2915 22.3742 32.3167 22.4008 32.3167H22.798C22.8246 32.3167 22.8462 32.2915 22.8462 32.2604V32.027C22.8462 31.9959 22.8246 31.9707 22.798 31.9707Z" fill="#3F3D56"/>
<path d="M23.785 31.9707H23.3879C23.3612 31.9707 23.3397 31.9959 23.3397 32.027V32.2604C23.3397 32.2915 23.3612 32.3167 23.3879 32.3167H23.785C23.8117 32.3167 23.8332 32.2915 23.8332 32.2604V32.027C23.8332 31.9959 23.8117 31.9707 23.785 31.9707Z" fill="#3F3D56"/>
<path d="M24.7722 31.9707H24.375C24.3484 31.9707 24.3268 31.9959 24.3268 32.027V32.2604C24.3268 32.2915 24.3484 32.3167 24.375 32.3167H24.7722C24.7988 32.3167 24.8204 32.2915 24.8204 32.2604V32.027C24.8204 31.9959 24.7988 31.9707 24.7722 31.9707Z" fill="#3F3D56"/>
<path d="M25.7593 31.9707H25.3622C25.3355 31.9707 25.314 31.9959 25.314 32.027V32.2604C25.314 32.2915 25.3355 32.3167 25.3622 32.3167H25.7593C25.786 32.3167 25.8075 32.2915 25.8075 32.2604V32.027C25.8075 31.9959 25.786 31.9707 25.7593 31.9707Z" fill="#3F3D56"/>
<path d="M26.7465 31.9707H26.3493C26.3227 31.9707 26.3011 31.9959 26.3011 32.027V32.2604C26.3011 32.2915 26.3227 32.3167 26.3493 32.3167H26.7465C26.7731 32.3167 26.7947 32.2915 26.7947 32.2604V32.027C26.7947 31.9959 26.7731 31.9707 26.7465 31.9707Z" fill="#3F3D56"/>
<path d="M27.7337 31.9707H27.3365C27.3098 31.9707 27.2883 31.9959 27.2883 32.027V32.2604C27.2883 32.2915 27.3098 32.3167 27.3365 32.3167H27.7337C27.7603 32.3167 27.7818 32.2915 27.7818 32.2604V32.027C27.7818 31.9959 27.7603 31.9707 27.7337 31.9707Z" fill="#3F3D56"/>
<path d="M28.7208 31.9707H28.3236C28.297 31.9707 28.2755 31.9959 28.2755 32.027V32.2604C28.2755 32.2915 28.297 32.3167 28.3236 32.3167H28.7208C28.7475 32.3167 28.769 32.2915 28.769 32.2604V32.027C28.769 31.9959 28.7475 31.9707 28.7208 31.9707Z" fill="#3F3D56"/>
<path d="M29.708 31.9707H29.3108C29.2842 31.9707 29.2626 31.9959 29.2626 32.027V32.2604C29.2626 32.2915 29.2842 32.3167 29.3108 32.3167H29.708C29.7346 32.3167 29.7562 32.2915 29.7562 32.2604V32.027C29.7562 31.9959 29.7346 31.9707 29.708 31.9707Z" fill="#3F3D56"/>
<path d="M23.0941 32.6647H19.2419C19.2152 32.6647 19.1937 32.6899 19.1937 32.721V32.9544C19.1937 32.9855 19.2152 33.0107 19.2419 33.0107H23.0941C23.1207 33.0107 23.1423 32.9855 23.1423 32.9544V32.721C23.1423 32.6899 23.1207 32.6647 23.0941 32.6647Z" fill="#3F3D56"/>
<path d="M34.0229 4.71498H8.81869C8.79249 4.71431 8.76756 4.70174 8.74923 4.67997C8.7309 4.65821 8.72064 4.62896 8.72064 4.59851C8.72064 4.56806 8.7309 4.53882 8.74923 4.51705C8.76756 4.49528 8.79249 4.48272 8.81869 4.48205H34.0229C34.0491 4.48272 34.0741 4.49528 34.0924 4.51705C34.1107 4.53882 34.121 4.56806 34.121 4.59851C34.121 4.62896 34.1107 4.65821 34.0924 4.67997C34.0741 4.70174 34.0491 4.71431 34.0229 4.71498Z" fill="#3F3D56"/>
<path d="M10.5344 3.88241C10.8588 3.88241 11.1218 3.56739 11.1218 3.17879C11.1218 2.7902 10.8588 2.47518 10.5344 2.47518C10.2099 2.47518 9.94696 2.7902 9.94696 3.17879C9.94696 3.56739 10.2099 3.88241 10.5344 3.88241Z" fill="#3F3D56"/>
<path d="M12.5636 3.88241C12.888 3.88241 13.151 3.56739 13.151 3.17879C13.151 2.7902 12.888 2.47518 12.5636 2.47518C12.2392 2.47518 11.9762 2.7902 11.9762 3.17879C11.9762 3.56739 12.2392 3.88241 12.5636 3.88241Z" fill="#3F3D56"/>
<path d="M14.5927 3.88241C14.9171 3.88241 15.1801 3.56739 15.1801 3.17879C15.1801 2.7902 14.9171 2.47518 14.5927 2.47518C14.2683 2.47518 14.0053 2.7902 14.0053 3.17879C14.0053 3.56739 14.2683 3.88241 14.5927 3.88241Z" fill="#3F3D56"/>
<path d="M32.801 2.64915H31.3598C31.3313 2.64993 31.3042 2.66364 31.2843 2.68737C31.2644 2.71109 31.2532 2.74294 31.2532 2.77611C31.2532 2.80928 31.2644 2.84113 31.2843 2.86485C31.3042 2.88858 31.3313 2.9023 31.3598 2.90307H32.801C32.8297 2.9026 32.8571 2.88901 32.8772 2.86526C32.8973 2.8415 32.9086 2.80948 32.9086 2.77611C32.9086 2.74275 32.8973 2.71072 32.8772 2.68697C32.8571 2.66321 32.8297 2.64963 32.801 2.64915Z" fill="#3F3D56"/>
<path d="M32.801 3.12919H31.3597C31.3312 3.12993 31.3041 3.14362 31.2842 3.16735C31.2642 3.19108 31.2531 3.22295 31.2531 3.25615C31.2531 3.28934 31.2642 3.32121 31.2842 3.34494C31.3041 3.36867 31.3312 3.38237 31.3597 3.3831H32.801C32.8297 3.3827 32.8571 3.36915 32.8773 3.34538C32.8975 3.32162 32.9088 3.28955 32.9088 3.25615C32.9088 3.22274 32.8975 3.19068 32.8773 3.16691C32.8571 3.14315 32.8297 3.12959 32.801 3.12919Z" fill="#3F3D56"/>
<path d="M32.801 3.60923H31.3598C31.3313 3.61 31.3042 3.62371 31.2843 3.64744C31.2644 3.67116 31.2532 3.70301 31.2532 3.73618C31.2532 3.76935 31.2644 3.8012 31.2843 3.82493C31.3042 3.84865 31.3313 3.86236 31.3598 3.86314H32.801C32.8297 3.86267 32.8571 3.84908 32.8772 3.82533C32.8973 3.80157 32.9086 3.76954 32.9086 3.73618C32.9086 3.70282 32.8973 3.67079 32.8772 3.64704C32.8571 3.62328 32.8297 3.6097 32.801 3.60923Z" fill="#3F3D56"/>
<path d="M10.992 7.44631H10.4741C10.3171 7.44631 10.1898 7.59533 10.1898 7.77916C10.1898 7.96298 10.3171 8.112 10.4741 8.112H10.992C11.149 8.112 11.2763 7.96298 11.2763 7.77916C11.2763 7.59533 11.149 7.44631 10.992 7.44631Z" fill="#E6E6E6"/>
<path d="M16.9148 7.44631H16.397C16.24 7.44631 16.1127 7.59533 16.1127 7.77916C16.1127 7.96298 16.24 8.112 16.397 8.112H16.9148C17.0719 8.112 17.1991 7.96298 17.1991 7.77916C17.1991 7.59533 17.0719 7.44631 16.9148 7.44631Z" fill="#E6E6E6"/>
<path d="M18.5929 7.44631H18.0751C17.9181 7.44631 17.7908 7.59533 17.7908 7.77916C17.7908 7.96298 17.9181 8.112 18.0751 8.112H18.5929C18.75 8.112 18.8772 7.96298 18.8772 7.77916C18.8772 7.59533 18.75 7.44631 18.5929 7.44631Z" fill="#E6E6E6"/>
<path d="M15.3038 7.39077H12.0851C11.9281 7.39077 11.8008 7.53979 11.8008 7.72362C11.8008 7.90744 11.9281 8.05647 12.0851 8.05647H15.3038C15.4608 8.05647 15.5881 7.90744 15.5881 7.72362C15.5881 7.53979 15.4608 7.39077 15.3038 7.39077Z" fill="#E6E6E6"/>
<path d="M23.201 7.39077H19.9823C19.8253 7.39077 19.698 7.53979 19.698 7.72362C19.698 7.90744 19.8253 8.05647 19.9823 8.05647H23.201C23.358 8.05647 23.4853 7.90744 23.4853 7.72362C23.4853 7.53979 23.358 7.39077 23.201 7.39077Z" fill="#E6E6E6"/>
<path d="M12.5714 8.95H12.0535C11.8965 8.95 11.7692 9.09902 11.7692 9.28284C11.7692 9.46667 11.8965 9.61569 12.0535 9.61569H12.5714C12.7284 9.61569 12.8557 9.46667 12.8557 9.28284C12.8557 9.09902 12.7284 8.95 12.5714 8.95Z" fill="#E6E6E6"/>
<path d="M18.4942 8.95H17.9764C17.8194 8.95 17.6921 9.09902 17.6921 9.28284C17.6921 9.46667 17.8194 9.61569 17.9764 9.61569H18.4942C18.6513 9.61569 18.7785 9.46667 18.7785 9.28284C18.7785 9.09902 18.6513 8.95 18.4942 8.95Z" fill="#E6E6E6"/>
<path d="M20.1725 8.95H19.6546C19.4976 8.95 19.3703 9.09902 19.3703 9.28284C19.3703 9.46667 19.4976 9.61569 19.6546 9.61569H20.1725C20.3295 9.61569 20.4568 9.46667 20.4568 9.28284C20.4568 9.09902 20.3295 8.95 20.1725 8.95Z" fill="#E6E6E6"/>
<path d="M16.8832 8.89447H13.6645C13.5075 8.89447 13.3802 9.04348 13.3802 9.22731C13.3802 9.41114 13.5075 9.56016 13.6645 9.56016H16.8832C17.0402 9.56016 17.1675 9.41114 17.1675 9.22731C17.1675 9.04348 17.0402 8.89447 16.8832 8.89447Z" fill="#E6E6E6"/>
<path d="M24.7804 8.89447H21.5618C21.4047 8.89447 21.2775 9.04348 21.2775 9.22731C21.2775 9.41114 21.4047 9.56016 21.5618 9.56016H24.7804C24.9375 9.56016 25.0647 9.41114 25.0647 9.22731C25.0647 9.04348 24.9375 8.89447 24.7804 8.89447Z" fill="#E6E6E6"/>
<path d="M14.1509 10.4537H13.633C13.476 10.4537 13.3487 10.6027 13.3487 10.7865C13.3487 10.9704 13.476 11.1194 13.633 11.1194H14.1509C14.3079 11.1194 14.4352 10.9704 14.4352 10.7865C14.4352 10.6027 14.3079 10.4537 14.1509 10.4537Z" fill="#E6E6E6"/>
<path d="M20.0738 10.4537H19.5559C19.3989 10.4537 19.2716 10.6027 19.2716 10.7865C19.2716 10.9704 19.3989 11.1194 19.5559 11.1194H20.0738C20.2308 11.1194 20.3581 10.9704 20.3581 10.7865C20.3581 10.6027 20.2308 10.4537 20.0738 10.4537Z" fill="#E6E6E6"/>
<path d="M21.7519 10.4537H21.234C21.077 10.4537 20.9497 10.6027 20.9497 10.7865C20.9497 10.9704 21.077 11.1194 21.234 11.1194H21.7519C21.9089 11.1194 22.0362 10.9704 22.0362 10.7865C22.0362 10.6027 21.9089 10.4537 21.7519 10.4537Z" fill="#E6E6E6"/>
<path d="M18.4627 10.3982H15.244C15.087 10.3982 14.9597 10.5472 14.9597 10.731C14.9597 10.9148 15.087 11.0639 15.244 11.0639H18.4627C18.6197 11.0639 18.747 10.9148 18.747 10.731C18.747 10.5472 18.6197 10.3982 18.4627 10.3982Z" fill="#E6E6E6"/>
<path d="M26.3598 10.3982H23.1412C22.9842 10.3982 22.8569 10.5472 22.8569 10.731C22.8569 10.9148 22.9842 11.0639 23.1412 11.0639H26.3598C26.5169 11.0639 26.6441 10.9148 26.6441 10.731C26.6441 10.5472 26.5169 10.3982 26.3598 10.3982Z" fill="#E6E6E6"/>
<path d="M15.7303 11.9574H15.2124C15.0554 11.9574 14.9281 12.1064 14.9281 12.2902C14.9281 12.4741 15.0554 12.6231 15.2124 12.6231H15.7303C15.8873 12.6231 16.0146 12.4741 16.0146 12.2902C16.0146 12.1064 15.8873 11.9574 15.7303 11.9574Z" fill="#E6E6E6"/>
<path d="M21.6531 11.9574H21.1352C20.9782 11.9574 20.851 12.1064 20.851 12.2902C20.851 12.4741 20.9782 12.6231 21.1352 12.6231H21.6531C21.8101 12.6231 21.9374 12.4741 21.9374 12.2902C21.9374 12.1064 21.8101 11.9574 21.6531 11.9574Z" fill="#E6E6E6"/>
<path d="M23.3313 11.9574H22.8134C22.6564 11.9574 22.5291 12.1064 22.5291 12.2902C22.5291 12.4741 22.6564 12.6231 22.8134 12.6231H23.3313C23.4883 12.6231 23.6156 12.4741 23.6156 12.2902C23.6156 12.1064 23.4883 11.9574 23.3313 11.9574Z" fill="#E6E6E6"/>
<path d="M20.0421 11.9019H16.8234C16.6664 11.9019 16.5391 12.0509 16.5391 12.2347C16.5391 12.4185 16.6664 12.5675 16.8234 12.5675H20.0421C20.1991 12.5675 20.3264 12.4185 20.3264 12.2347C20.3264 12.0509 20.1991 11.9019 20.0421 11.9019Z" fill="#E6E6E6"/>
<path d="M16.9148 17.9367H16.397C16.24 17.9367 16.1127 18.0857 16.1127 18.2696C16.1127 18.4534 16.24 18.6024 16.397 18.6024H16.9148C17.0719 18.6024 17.1991 18.4534 17.1991 18.2696C17.1991 18.0857 17.0719 17.9367 16.9148 17.9367Z" fill="#E6E6E6"/>
<path d="M18.5929 17.9367H18.0751C17.9181 17.9367 17.7908 18.0857 17.7908 18.2696C17.7908 18.4534 17.9181 18.6024 18.0751 18.6024H18.5929C18.75 18.6024 18.8772 18.4534 18.8772 18.2696C18.8772 18.0857 18.75 17.9367 18.5929 17.9367Z" fill="#E6E6E6"/>
<path d="M23.201 17.9922H19.9823C19.8253 17.9922 19.698 18.1412 19.698 18.3251C19.698 18.5089 19.8253 18.6579 19.9823 18.6579H23.201C23.358 18.6579 23.4853 18.5089 23.4853 18.3251C23.4853 18.1412 23.358 17.9922 23.201 17.9922Z" fill="#E6E6E6"/>
<path d="M10.992 17.9367H10.4741C10.3171 17.9367 10.1898 18.0857 10.1898 18.2696C10.1898 18.4534 10.3171 18.6024 10.4741 18.6024H10.992C11.149 18.6024 11.2763 18.4534 11.2763 18.2696C11.2763 18.0857 11.149 17.9367 10.992 17.9367Z" fill="#E6E6E6"/>
<path d="M15.3038 17.9922H12.0851C11.9281 17.9922 11.8008 18.1412 11.8008 18.3251C11.8008 18.5089 11.9281 18.6579 12.0851 18.6579H15.3038C15.4608 18.6579 15.5881 18.5089 15.5881 18.3251C15.5881 18.1412 15.4608 17.9922 15.3038 17.9922Z" fill="#E6E6E6"/>
<path d="M12.5714 16.433H12.0535C11.8965 16.433 11.7692 16.582 11.7692 16.7659C11.7692 16.9497 11.8965 17.0987 12.0535 17.0987H12.5714C12.7284 17.0987 12.8557 16.9497 12.8557 16.7659C12.8557 16.582 12.7284 16.433 12.5714 16.433Z" fill="#E6E6E6"/>
<path d="M18.4942 16.433H17.9764C17.8194 16.433 17.6921 16.582 17.6921 16.7659C17.6921 16.9497 17.8194 17.0987 17.9764 17.0987H18.4942C18.6513 17.0987 18.7785 16.9497 18.7785 16.7659C18.7785 16.582 18.6513 16.433 18.4942 16.433Z" fill="#E6E6E6"/>
<path d="M20.1725 16.433H19.6546C19.4976 16.433 19.3703 16.582 19.3703 16.7659C19.3703 16.9497 19.4976 17.0987 19.6546 17.0987H20.1725C20.3295 17.0987 20.4568 16.9497 20.4568 16.7659C20.4568 16.582 20.3295 16.433 20.1725 16.433Z" fill="#E6E6E6"/>
<path d="M16.8832 16.4886H13.6645C13.5075 16.4886 13.3802 16.6376 13.3802 16.8214C13.3802 17.0052 13.5075 17.1542 13.6645 17.1542H16.8832C17.0402 17.1542 17.1675 17.0052 17.1675 16.8214C17.1675 16.6376 17.0402 16.4886 16.8832 16.4886Z" fill="#E6E6E6"/>
<path d="M14.1509 14.9294H13.633C13.476 14.9294 13.3487 15.0784 13.3487 15.2622C13.3487 15.446 13.476 15.595 13.633 15.595H14.1509C14.3079 15.595 14.4352 15.446 14.4352 15.2622C14.4352 15.0784 14.3079 14.9294 14.1509 14.9294Z" fill="#E6E6E6"/>
<path d="M20.0738 14.9294H19.5559C19.3989 14.9294 19.2716 15.0784 19.2716 15.2622C19.2716 15.446 19.3989 15.595 19.5559 15.595H20.0738C20.2308 15.595 20.3581 15.446 20.3581 15.2622C20.3581 15.0784 20.2308 14.9294 20.0738 14.9294Z" fill="#E6E6E6"/>
<path d="M21.7519 14.9294H21.234C21.077 14.9294 20.9497 15.0784 20.9497 15.2622C20.9497 15.446 21.077 15.595 21.234 15.595H21.7519C21.9089 15.595 22.0362 15.446 22.0362 15.2622C22.0362 15.0784 21.9089 14.9294 21.7519 14.9294Z" fill="#E6E6E6"/>
<path d="M18.4627 14.9849H15.244C15.087 14.9849 14.9597 15.1339 14.9597 15.3178C14.9597 15.5016 15.087 15.6506 15.244 15.6506H18.4627C18.6197 15.6506 18.747 15.5016 18.747 15.3178C18.747 15.1339 18.6197 14.9849 18.4627 14.9849Z" fill="#E6E6E6"/>
<path d="M15.7303 13.4257H15.2124C15.0554 13.4257 14.9281 13.5747 14.9281 13.7585C14.9281 13.9423 15.0554 14.0914 15.2124 14.0914H15.7303C15.8873 14.0914 16.0146 13.9423 16.0146 13.7585C16.0146 13.5747 15.8873 13.4257 15.7303 13.4257Z" fill="#E6E6E6"/>
<path d="M21.6531 13.4257H21.1352C20.9782 13.4257 20.851 13.5747 20.851 13.7585C20.851 13.9423 20.9782 14.0914 21.1352 14.0914H21.6531C21.8101 14.0914 21.9374 13.9423 21.9374 13.7585C21.9374 13.5747 21.8101 13.4257 21.6531 13.4257Z" fill="#E6E6E6"/>
<path d="M23.3313 13.4257H22.8134C22.6564 13.4257 22.5291 13.5747 22.5291 13.7585C22.5291 13.9423 22.6564 14.0914 22.8134 14.0914H23.3313C23.4883 14.0914 23.6156 13.9423 23.6156 13.7585C23.6156 13.5747 23.4883 13.4257 23.3313 13.4257Z" fill="#E6E6E6"/>
<path d="M20.0421 13.4812H16.8234C16.6664 13.4812 16.5391 13.6302 16.5391 13.814C16.5391 13.9978 16.6664 14.1469 16.8234 14.1469H20.0421C20.1991 14.1469 20.3264 13.9978 20.3264 13.814C20.3264 13.6302 20.1991 13.4812 20.0421 13.4812Z" fill="#E6E6E6"/>
<path d="M34.3252 39.6597C34.265 39.6955 34.2038 39.7314 34.1436 39.7661C32.5839 40.6799 31.3361 41.1992 29.6293 41.7683C29.4852 39.8829 29.346 36.569 29.2108 34.5147C29.1753 33.9815 29.1397 33.5338 29.1052 33.2181C29.0965 33.0502 29.0672 32.8846 29.0183 32.7265L29.0242 33.2181L29.039 34.5147L29.1249 41.9302C27.0018 42.5885 24.8208 42.9568 22.6255 43.0279C22.511 43.0314 22.3985 43.0337 22.2899 43.036C22.2514 43.0372 22.2139 43.0383 22.1764 43.0383C22.053 43.0395 21.9306 43.0407 21.8072 43.0407C19.4937 43.0427 17.1886 42.7152 14.9425 42.0656C14.9909 40.1998 15.0393 36.9229 15.0857 34.5147C15.0955 34.0439 15.1044 33.6056 15.1143 33.2181C15.1331 32.3899 15.1528 31.793 15.1716 31.5929C15.1549 31.6284 15.142 31.6661 15.1331 31.7051C15.0416 32.2039 14.9793 32.7094 14.9465 33.2181C14.9119 33.6056 14.8774 34.0439 14.8428 34.5147C14.6592 37.0166 14.4677 40.4184 14.2703 41.8608C13.0951 41.4849 11.942 41.0201 10.8182 40.4693C10.2259 40.1802 9.64417 39.8682 9.07294 39.5336C9.18152 38.7008 9.29505 37.7673 9.41153 36.7992C9.50235 36.0485 9.59613 35.277 9.69188 34.5147C9.83995 33.3372 9.99197 32.1828 10.146 31.1661C10.371 29.6809 10.602 28.4872 10.8311 27.939C11.0482 27.4184 11.2654 26.9049 11.4757 26.4133C11.5487 26.2409 11.6218 26.0709 11.6928 25.9055C11.7096 25.8662 11.7264 25.828 11.7432 25.7898C11.8942 25.4417 12.0403 25.1085 12.1795 24.7962C12.2989 24.529 12.4125 24.2769 12.5201 24.0444C12.7807 23.4799 13.0018 23.03 13.1657 22.7454C13.8508 21.5278 14.8706 20.6213 16.056 20.1764L16.0856 20.1672L16.1064 20.1776L18.1251 19.4512L18.4203 19.3448L18.6187 19.2731L19.3176 18.6496L19.6976 18.3107L20.054 17.9926L20.7509 17.3715L25.0658 17.6826L25.9058 20.0527L27.7873 20.8589L27.8199 20.8415L27.8485 20.8276L27.8781 20.8369C29.0633 21.2821 30.0831 22.1885 30.7685 23.4059C30.8613 23.569 30.9738 23.7841 31.1012 24.0444C31.2098 24.2653 31.3282 24.5175 31.4566 24.7962C31.6392 25.193 31.8386 25.6406 32.0498 26.1253C32.0962 26.2317 32.1436 26.3404 32.191 26.4503C32.2789 26.6539 32.368 26.8617 32.4585 27.0737C32.6688 27.5653 32.886 28.0789 33.1031 28.6006C33.2917 29.0528 33.4822 29.9828 33.6698 31.1661C33.8247 32.1493 33.9787 33.3083 34.1278 34.5147C34.3232 36.0786 34.115 37.9512 34.2917 39.3901C34.3025 39.4815 34.3144 39.5706 34.3252 39.6597Z" fill="#3F3D56"/>
<path d="M21.8679 15.4796C24.6394 15.4796 26.8862 12.847 26.8862 9.59946C26.8862 6.35192 24.6394 3.71928 21.8679 3.71928C19.0963 3.71928 16.8495 6.35192 16.8495 9.59946C16.8495 12.847 19.0963 15.4796 21.8679 15.4796Z" fill="#A0616A"/>
<path d="M30.1436 1.80709C30.0444 1.53575 29.9124 1.28254 29.7517 1.05524C28.9896 -0.0355148 27.6037 -0.515538 26.1812 0.775325C25.9074 0.703638 25.6219 0.722863 25.3569 0.830843C25.2318 0.883928 25.1146 0.959645 25.0094 1.05524C24.794 1.25212 24.626 1.5112 24.5218 1.80709C24.4661 1.96336 24.4295 2.12809 24.4132 2.29637C24.0616 2.08229 23.6894 1.91804 23.3046 1.80709C22.3605 1.53191 21.3732 1.53191 20.4291 1.80709C20.1265 1.89677 19.8352 2.03208 19.5623 2.20962C19.1004 2.52192 18.8348 2.91635 18.7874 3.35473C18.1211 3.39869 17.4281 3.80931 16.9118 4.4825C16.8536 4.55769 16.7973 4.63634 16.745 4.71731C16.3109 5.38298 16.0775 6.19868 16.0817 7.03647V7.18337H16.207C16.5505 7.18297 16.8908 7.26076 17.209 7.41239C17.4152 7.50944 17.6104 7.63568 17.7904 7.78832C17.9082 7.88621 18.0194 7.99448 18.1231 8.11219C18.3635 8.38494 18.5672 8.69889 18.7272 9.04332C19.1373 9.91368 19.2796 10.9228 19.13 11.9015C19.0957 12.128 19.0455 12.3509 18.9799 12.5677C18.8867 12.8772 18.7638 13.1733 18.6137 13.4503C18.6078 13.4607 18.6028 13.4711 18.5969 13.4815C18.5308 13.6053 18.4676 13.7314 18.4084 13.8586C18.3639 13.9535 18.3225 14.0506 18.284 14.1478C18.1715 14.4182 18.0764 14.6981 17.9997 14.9852C17.8623 15.493 17.7813 16.0194 17.7588 16.5514C17.7519 16.6925 17.7499 16.8336 17.7539 16.9747C17.7598 17.3385 17.7938 17.7008 17.8556 18.0574C17.8644 18.106 17.8733 18.1534 17.8822 18.202L17.9543 18.571L18.1251 19.4512L18.2435 20.0573L18.3531 20.6194L18.515 20.3476C18.5703 20.2551 18.7095 19.9705 18.896 19.568C19.0194 19.3055 19.1626 18.992 19.3175 18.6496C19.5337 18.1696 19.7706 17.634 20.0026 17.0996C20.0964 16.8833 20.1892 16.6682 20.279 16.4577C20.4488 16.0586 20.6087 15.6735 20.7459 15.3311C20.8723 15.0153 20.9799 14.7354 21.0599 14.511C21.0845 14.6579 21.1053 14.8071 21.1211 14.9575C21.1388 15.1101 21.1517 15.2651 21.1586 15.4201C21.1605 15.4433 21.1615 15.4676 21.1625 15.4907L21.1665 15.5856L21.1675 15.6133L21.2721 15.6295C21.8756 15.7052 22.484 15.7107 23.0884 15.6457H23.0894C23.8902 15.5751 24.6757 15.352 25.4152 14.9852C25.8351 14.7717 26.2273 14.4898 26.58 14.1478C26.7448 13.9879 26.8986 13.8131 27.04 13.625C27.0755 13.5775 27.1101 13.5301 27.1437 13.4815C27.339 13.2002 27.5063 12.8936 27.6422 12.5678C27.7332 12.3527 27.8104 12.13 27.8732 11.9015C28.2522 10.5563 28.2305 8.87793 27.808 6.8838C27.9221 6.85804 28.0314 6.80869 28.1308 6.73805C28.4408 6.51945 28.656 6.08569 28.7231 5.55592L28.8297 5.58947C29.2077 5.38319 29.5443 5.08604 29.8178 4.71733C29.872 4.64225 29.9228 4.56387 29.9699 4.48252C30.4526 3.64969 30.4565 2.65031 30.1436 1.80709Z" fill="#2F2E41"/>
<path opacity="0.2" d="M13.6454 31.161L14.4842 27.368L15.2248 30.641L13.6454 31.161Z" fill="black"/>
<path d="M35.9658 28.6897C35.6657 33.5339 35.9767 35.6668 34.3203 39.6608C32.8131 40.5252 31.2433 41.2305 29.6293 41.7683C29.4615 41.8238 29.2934 41.8778 29.1249 41.9303C27.0018 42.5885 24.8208 42.9568 22.6255 43.0279C22.511 43.0314 22.3985 43.0337 22.2899 43.036C22.2514 43.0372 22.2139 43.0384 22.1763 43.0384C22.0529 43.0395 21.9305 43.0407 21.8071 43.0407C19.4937 43.0427 17.1886 42.7152 14.9425 42.0656C14.7174 42.0008 14.4934 41.9326 14.2703 41.8608C13.0951 41.4849 11.942 41.0201 10.8182 40.4694C10.2259 40.1802 9.64415 39.8683 9.07291 39.5336C8.9436 39.4573 8.81428 39.3809 8.68694 39.3023C8.03246 37.9536 7.6603 36.3134 7.6524 34.3424C8.10551 30.9464 34.9649 25.7609 35.9658 28.6897Z" fill="#2F2E41"/>
<path opacity="0.2" d="M35.9651 29.5192C35.9804 29.2193 35.9975 28.9095 36.0175 28.5869C35.0166 25.6582 8.1572 30.8436 7.7041 34.2397C7.70535 34.551 7.71671 34.8532 7.73582 35.1482C8.83309 31.7963 34.3498 26.8679 35.9651 29.5192Z" fill="black"/>
<path d="M9.37845 15.7604C9.38499 15.6555 9.37228 15.5502 9.34118 15.4516C9.31009 15.353 9.26131 15.2633 9.19815 15.1886C9.135 15.1139 9.05891 15.0559 8.97503 15.0186C8.89114 14.9812 8.8014 14.9654 8.71185 14.9721C8.67848 14.9735 8.64529 14.9784 8.61263 14.9866L4.68752 16.0256C4.59981 16.0505 4.51753 16.0967 4.44597 16.1612C4.37442 16.2256 4.31517 16.3069 4.27205 16.3998C4.21449 16.4023 4.15733 16.4121 4.10154 16.4288C3.97939 16.4613 3.8639 16.5216 3.76164 16.6063C3.65939 16.6911 3.57238 16.7986 3.50559 16.9227C3.4388 17.0469 3.39352 17.1852 3.37236 17.3299C3.35119 17.4745 3.35455 17.6226 3.38224 17.7657C3.40992 17.9089 3.4614 18.0442 3.53372 18.164C3.60604 18.2838 3.69779 18.3858 3.80374 18.4641C4.01771 18.6221 4.2765 18.6741 4.52319 18.6086C4.6636 18.5704 4.79495 18.4959 4.90763 18.3906L6.23772 22.7792C6.30416 22.9167 6.4068 23.0253 6.5303 23.0888C6.65381 23.1524 6.79153 23.1673 6.9229 23.1315L9.47456 22.4558C9.60492 22.42 9.72225 22.3368 9.8097 22.218C9.89715 22.0992 9.95023 21.951 9.96131 21.7946L9.37845 15.7604ZM4.46428 18.2962C4.2881 18.3427 4.10335 18.3055 3.95054 18.1927C3.79773 18.0799 3.68934 17.9007 3.64911 17.6944C3.60889 17.4881 3.64014 17.2716 3.73599 17.0922C3.83184 16.9128 3.98448 16.7853 4.16044 16.7377C4.17284 16.734 4.18525 16.7377 4.19765 16.734C4.19671 16.8664 4.22559 16.9967 4.28137 17.1118L4.76811 18.1072C4.68338 18.2014 4.57833 18.2667 4.46428 18.2962Z" fill="#2F2E41"/>
<path d="M5.99726 29.7278L8.20193 28.4361L6.36471 22.6237L5.88052 19.6924C5.81761 19.3116 5.67051 18.9568 5.45391 18.6634C5.23731 18.3701 4.95881 18.1485 4.64622 18.0208C4.33364 17.8931 3.99792 17.8637 3.67263 17.9357C3.34733 18.0076 3.04384 18.1783 2.7925 18.4308C2.42003 18.8049 2.18617 19.3339 2.14026 19.9062C2.09436 20.4785 2.24 21.0493 2.54645 21.4981L4.34377 24.1306L5.99726 29.7278Z" fill="#A0616A"/>
<path d="M8.20194 27.3598L5.26239 29.082L7.49321 37.2723C7.6534 37.8605 7.94057 38.3902 8.32687 38.81C8.71318 39.2298 9.18551 39.5256 9.69807 39.6686C10.3301 39.8449 10.9936 39.7808 11.5924 39.4855C12.1912 39.1903 12.6942 38.6792 13.0285 38.0264L18.9439 26.1457C19.3632 25.327 19.4926 24.3487 19.3045 23.4197C19.1164 22.4908 18.6258 21.6848 17.9375 21.174C17.5673 20.8992 17.1518 20.7189 16.7182 20.6448C16.2846 20.5706 15.8425 20.6043 15.4207 20.7435C14.9989 20.8828 14.6069 21.1246 14.2701 21.4532C13.9333 21.7817 13.6594 22.1897 13.4661 22.6505L9.85547 31.6653L8.20194 27.3598Z" fill="#3F3D56"/>
<path d="M7.29273 19.9572C7.28727 19.9572 7.28184 19.9562 7.27668 19.9541L6.63489 19.6954C6.62713 19.6923 6.62016 19.6869 6.61461 19.6799C6.60905 19.6728 6.60509 19.6643 6.60308 19.655C6.60106 19.6457 6.60106 19.6359 6.60307 19.6266C6.60508 19.6173 6.60904 19.6088 6.6146 19.6017L7.09193 18.9932C7.0963 18.9876 7.10158 18.983 7.10746 18.9798C7.11334 18.9765 7.11971 18.9747 7.1262 18.9743C7.13269 18.974 7.13917 18.9752 7.14528 18.9778C7.15138 18.9804 7.15699 18.9844 7.16178 18.9895C7.16656 18.9946 7.17043 19.0008 7.17317 19.0077C7.1759 19.0146 7.17744 19.0221 7.17771 19.0297C7.17797 19.0373 7.17695 19.0449 7.17471 19.052C7.17246 19.0592 7.16903 19.0657 7.16461 19.0713L6.73828 19.6148L7.30878 19.8448C7.31983 19.8493 7.32916 19.8582 7.33514 19.8699C7.34111 19.8817 7.34334 19.8955 7.34141 19.909C7.33948 19.9225 7.33354 19.9347 7.32462 19.9436C7.31571 19.9524 7.30441 19.9572 7.29273 19.9572Z" fill="#6C63FF"/>
<path d="M8.17249 19.7463C8.16266 19.7463 8.15305 19.7428 8.1449 19.7364C8.13675 19.73 8.13042 19.7208 8.12674 19.7101C8.12305 19.6995 8.12217 19.6877 8.12421 19.6765C8.12624 19.6652 8.13111 19.6549 8.13817 19.6469L8.57198 19.1558L7.98923 18.8746C7.98323 18.8718 7.97778 18.8675 7.97317 18.8622C7.96857 18.8568 7.96492 18.8505 7.96242 18.8434C7.95992 18.8364 7.95863 18.8289 7.95862 18.8213C7.9586 18.8137 7.95987 18.8062 7.96234 18.7992C7.96481 18.7922 7.96844 18.7858 7.97302 18.7804C7.9776 18.775 7.98305 18.7708 7.98904 18.7679C7.99503 18.765 8.00145 18.7635 8.00793 18.7635C8.01442 18.7635 8.02084 18.7649 8.02683 18.7679L8.67928 19.0827C8.68685 19.0863 8.69354 19.0921 8.69872 19.0995C8.70391 19.107 8.70743 19.1158 8.70897 19.1252C8.71051 19.1346 8.71002 19.1444 8.70755 19.1535C8.70507 19.1627 8.70069 19.1709 8.6948 19.1776L8.20681 19.73C8.19761 19.7404 8.1853 19.7463 8.17249 19.7463Z" fill="#6C63FF"/>
<path d="M7.42749 20.3118C7.42257 20.3118 7.41767 20.3109 7.41298 20.3092C7.40678 20.3069 7.40102 20.3033 7.39602 20.2985C7.39102 20.2936 7.38689 20.2877 7.38385 20.281C7.38081 20.2742 7.37894 20.2669 7.37833 20.2593C7.37772 20.2518 7.37839 20.2441 7.3803 20.2369L7.83585 18.5018C7.83974 18.4872 7.84842 18.475 7.85999 18.4679C7.87155 18.4608 7.88505 18.4593 7.89754 18.4638C7.91003 18.4683 7.92048 18.4784 7.9266 18.492C7.93273 18.5055 7.93403 18.5213 7.93022 18.536L7.47468 20.271C7.47156 20.2828 7.4653 20.2931 7.45681 20.3005C7.44832 20.3078 7.43804 20.3118 7.42749 20.3118Z" fill="#6C63FF"/>
</svg>
